<?xml version="1.0" encoding="UTF-8"?>
<svg version="1.1" xmlns="http://www.w3.org/2000/svg" width="101" height="100">
<path d="M0 0 C33.33 0 66.66 0 101 0 C101 33 101 66 101 100 C67.67 100 34.34 100 0 100 C0 67 0 34 0 0 Z " fill="#FCFDFC" transform="translate(0,0)"/>
<path d="M0 0 C3.76488042 1.72154788 6.15063897 3.99234114 9 7 C7.43717018 10.76603869 5.0936525 13.13639151 2.2109375 15.984375 C1.74765045 16.44483215 1.2843634 16.90528931 0.80703735 17.37969971 C-0.66565898 18.84125078 -2.14517403 20.29567168 -3.625 21.75 C-4.62806322 22.74302611 -5.63067257 23.73651089 -6.6328125 24.73046875 C-9.08330835 27.15897941 -11.5399667 29.58114675 -14 32 C-9.89710644 36.89935597 -5.63018267 41.48358194 -1.0703125 45.95703125 C0.23189786 47.24661653 1.53397756 48.53633377 2.8359375 49.82617188 C4.86858778 51.83384677 6.90282089 53.83987015 8.93945312 55.84350586 C10.91967788 57.79370572 12.89378283 59.74993401 14.8671875 61.70703125 C15.48270477 62.3090889 16.09822205 62.91114655 16.73239136 63.53144836 C18.19319371 64.98345639 19.6022221 66.48722515 21 68 C21 68.66 21 69.32 21 70 C17.40060265 71.79969867 13.91436748 71.6621034 10 71 C8.28149414 69.9230957 8.28149414 69.9230957 6.59765625 68.36328125 C5.91058594 67.72793457 5.22351562 67.09258789 4.515625 66.43798828 C-0.53700735 61.54128926 -5.54447021 56.60245969 -10.51147461 51.61889648 C-12.45377265 49.67118197 -14.4014314 47.7289407 -16.34960938 45.78710938 C-17.58625875 44.54980017 -18.82259842 43.31218132 -20.05859375 42.07421875 C-20.64080185 41.49403488 -21.22300995 40.91385101 -21.82286072 40.31608582 C-26.88272179 35.22639498 -26.88272179 35.22639498 -27.2734375 31.140625 C-26.94661486 27.38683352 -26.21200956 26.42621679 -23.625 23.75 C-22.82449219 22.91210938 -22.02398437 22.07421875 -21.19921875 21.2109375 C-20.13459402 20.13885293 -19.06791047 19.06881166 -18 18 C-17.27635254 17.26942383 -16.55270508 16.53884766 -15.80712891 15.78613281 C-10.56527764 10.49654155 -5.29351212 5.23786303 0 0 Z " fill="#0F1110" transform="translate(33,21)"/>
<path d="M0 0 C3.08347822 1.36072861 5.05474497 2.8600167 7.3203125 5.34375 C8.24058228 6.34124268 8.24058228 6.34124268 9.17944336 7.35888672 C9.82147705 8.0654541 10.46351074 8.77202148 11.125 9.5 C12.46075585 10.95188729 13.79799896 12.40240768 15.13671875 13.8515625 C15.79075684 14.55958008 16.44479492 15.26759766 17.11865234 15.99707031 C20.41449428 19.50590593 23.86619947 22.84724827 27.33984375 26.1796875 C29 28 29 28 29 30 C24.85268729 34.63523186 20.83709067 38.64536367 14.5 39.4375 C8.25840191 38.65730024 4.36430408 35.74153078 0.0390625 31.33203125 C-0.84394531 30.43935547 -1.72695313 29.54667969 -2.63671875 28.62695312 C-3.54035156 27.69818359 -4.44398437 26.76941406 -5.375 25.8125 C-6.31049468 24.8619376 -7.24668664 23.91206091 -8.18359375 22.96289062 C-10.46267004 20.64857089 -12.73443054 18.32753104 -15 16 C-11.5191826 11.8586167 -7.98304674 7.86209149 -4.125 4.0625 C-3.34382813 3.29035156 -2.56265625 2.51820312 -1.7578125 1.72265625 C-1.17773438 1.15417969 -0.59765625 0.58570313 0 0 Z " fill="#080B0A" transform="translate(50,38)"/>
<path d="M0 0 C3.09125088 2.04056727 5.5239441 4.56346248 8.0625 7.24609375 C8.77986328 7.97240494 9.49722656 8.69871613 10.23632812 9.44703674 C12.51035623 11.75903256 14.7547242 14.09760771 17 16.4375 C18.53855769 18.00763197 20.07890549 19.57601196 21.62109375 21.14257812 C24.42478126 24.00465019 27.22410374 26.8704638 30 29.75952148 C30.556875 30.33830551 31.11375 30.91708954 31.6875 31.51341248 C34.19727951 34.35608441 34.10980149 36.43548377 34.0625 40.125 C34.05347656 41.03507812 34.04445312 41.94515625 34.03515625 42.8828125 C34.02355469 43.58148438 34.01195312 44.28015625 34 45 C33.01 45.33 32.02 45.66 31 46 C30.65638428 45.58492187 30.31276855 45.16984375 29.95874023 44.7421875 C23.73996522 37.42845671 16.86857515 30.75907554 10.0625 24 C8.79338627 22.7359115 7.52450411 21.47159044 6.25585938 20.20703125 C3.1732368 17.13533276 0.08749572 14.06679992 -3 11 C-3.86625 11.495 -3.86625 11.495 -4.75 12 C-7 13 -7 13 -11 13 C-13.125 10.5625 -13.125 10.5625 -15 8 C-15.66 7.67 -16.32 7.34 -17 7 C-14.17910548 -0.89850466 -7.23257994 -2.20679623 0 0 Z " fill="#090C0B" transform="translate(57,9)"/>
<path d="M0 0 C0.66 0 1.32 0 2 0 C2 2 2 2 -0.3125 4.625 C-3 7 -3 7 -6 7 C-5.04882866 5.8274869 -4.08882991 4.66212985 -3.125 3.5 C-2.59132813 2.8503125 -2.05765625 2.200625 -1.5078125 1.53125 C-0.76144531 0.77328125 -0.76144531 0.77328125 0 0 Z " fill="#212223" transform="translate(77,66)"/>
</svg>
